<svg width="19" height="27" viewBox="0 0 19 27" fill="none" xmlns="http://www.w3.org/2000/svg">
<path fill-rule="evenodd" clip-rule="evenodd" d="M2.64394 0.266602H16.3395C18.3438 0.266602 18.8888 1.42215 18.4668 3.59098C17.9042 6.39981 16.0934 15.2885 15.9352 15.9108C15.7418 16.6574 15.4078 17.8841 13.6496 17.8841H9.5357C9.46537 17.8841 9.41264 17.8841 9.30715 18.0085C9.20167 18.133 2.69669 25.795 2.69669 25.795C2.1341 26.3639 1.34297 26.275 1.04408 26.1506C0.745208 26.0262 0.200195 25.7062 0.200195 24.6218V2.61325C0.200195 1.70659 0.762785 0.266602 2.64394 0.266602ZM14.9155 7.02206L15.5308 4.01767C15.6363 3.5199 15.2495 3.12878 14.8628 3.12878H3.76914C3.36477 3.12878 3.03074 3.46659 3.03074 3.87544V21.2796C3.03074 21.333 3.06589 21.3507 3.10105 21.2974C3.10105 21.2974 7.14468 16.1775 7.60179 15.6086C8.05889 15.0397 8.2171 15.0219 8.99068 15.0042H12.6827C13.1046 15.0042 13.3859 14.6664 13.4211 14.3997C13.4739 14.1509 13.9485 11.8042 14.0364 11.342C14.1243 10.8976 13.7727 10.4887 13.3508 10.4887H8.83245C8.23468 10.4887 7.74242 9.99092 7.74242 9.38647V8.72871C7.74242 8.12426 8.23468 7.6265 8.83245 7.6265H14.1771C14.5463 7.6265 14.8452 7.34206 14.9155 7.02206Z" fill="white"/>
</svg>
