<svg width="21" height="25" viewBox="0 0 21 25" fill="none" xmlns="http://www.w3.org/2000/svg">
<path d="M8.39776 8.31232L12.7992 1.93543C13.6314 0.734011 14.7055 0.133301 16.0226 0.133301C17.097 0.133301 18.0265 0.514399 18.8126 1.27686C19.5979 2.03932 19.9906 2.95196 19.9906 4.01477C19.9906 4.80038 19.7831 5.49367 19.367 6.09438L15.3985 11.8648L20.2507 18.0165C20.736 18.6288 20.9785 19.3452 20.9785 20.1653C20.9785 21.2515 20.5976 22.1839 19.8349 22.9637C19.0725 23.7438 18.1477 24.1333 17.0623 24.1333C15.8722 24.1333 14.9656 23.7467 14.3415 22.9724L8.39776 15.5558V19.6456C8.39776 20.8126 8.19577 21.7192 7.79126 22.3661C7.05195 23.5442 5.97756 24.1333 4.56836 24.1333C3.28593 24.1333 2.29203 23.7001 1.58769 22.8338C0.929121 22.0366 0.600098 20.9793 0.600098 19.663V4.50002C0.600098 3.25231 0.934644 2.22448 1.60505 1.41573C2.30965 0.560952 3.27989 0.133301 4.51602 0.133301C5.69456 0.133301 6.67637 0.560952 7.46197 1.41573C7.90093 1.88914 8.17815 2.36861 8.29361 2.85385C8.36304 3.15447 8.39776 3.71442 8.39776 4.53474V8.31232Z" fill="white"/>
</svg>
