<svg width="14" height="14" viewBox="0 0 14 14" fill="none" xmlns="http://www.w3.org/2000/svg">
<path fill-rule="evenodd" clip-rule="evenodd" d="M7.00016 8.16668C7.64449 8.16668 8.16683 7.64434 8.16683 7.00001C8.16683 6.35568 7.64449 5.83334 7.00016 5.83334C6.35583 5.83334 5.8335 6.35568 5.8335 7.00001C5.8335 7.64434 6.35583 8.16668 7.00016 8.16668Z" stroke="#5E5CE6" stroke-width="1.16667" stroke-linecap="round" stroke-linejoin="round"/>
<path fill-rule="evenodd" clip-rule="evenodd" d="M11.6667 8.16668C12.311 8.16668 12.8333 7.64434 12.8333 7.00001C12.8333 6.35568 12.311 5.83334 11.6667 5.83334C11.0223 5.83334 10.5 6.35568 10.5 7.00001C10.5 7.64434 11.0223 8.16668 11.6667 8.16668Z" stroke="#5E5CE6" stroke-width="1.16667" stroke-linecap="round" stroke-linejoin="round"/>
<path fill-rule="evenodd" clip-rule="evenodd" d="M2.33317 8.16668C2.9775 8.16668 3.49984 7.64434 3.49984 7.00001C3.49984 6.35568 2.9775 5.83334 2.33317 5.83334C1.68884 5.83334 1.1665 6.35568 1.1665 7.00001C1.1665 7.64434 1.68884 8.16668 2.33317 8.16668Z" stroke="#5E5CE6" stroke-width="1.16667" stroke-linecap="round" stroke-linejoin="round"/>
</svg>
