<svg width="25" height="25" viewBox="0 0 25 25" fill="none" xmlns="http://www.w3.org/2000/svg">
<path fill-rule="evenodd" clip-rule="evenodd" d="M13.75 6.25C13.75 5.55964 13.1904 5 12.5 5C11.8096 5 11.25 5.55964 11.25 6.25V11.25H6.25C5.55964 11.25 5 11.8096 5 12.5C5 13.1904 5.55964 13.75 6.25 13.75H11.25V18.75C11.25 19.4404 11.8096 20 12.5 20C13.1904 20 13.75 19.4404 13.75 18.75V13.75H18.75C19.4404 13.75 20 13.1904 20 12.5C20 11.8096 19.4404 11.25 18.75 11.25H13.75V6.25Z" fill="#422F8A" fill-opacity="0.87"/>
</svg>
